# xmcd
#
# Track frame offsets:
#	150
#	19293
#	26869
#	35559
#	46555
#	57977
#	66620
#	79981
#	95742
#	106756
#	117388
#	133098
#	146485
#	163782
#	178293
#	188582
#	201244
#	213500
#	218106
#	233699
#	240967
#	248619
#	263941
#	275400
#	283795
#	299129
#	304506
#	308389
#	314915
#
# Disc length: 4312 seconds
#
# Revision: 2
# Processed by: cddbd v1.5PL3 Copyright (c) Steve Scherf et al.
# Submitted via: EasyCDDAExtractor 6.2.0.3
#
DISCID=be10d61d
DTITLE=F.G.T - French Gabber Team
DYEAR=2003
DGENRE=Hardcore
TTITLE0=(01) Mix
TTITLE1=(02) When You Will Say NRJ
TTITLE2=(03) What Is Fuck Inside Me
TTITLE3=(04) Emergency
TTITLE4=(05) I Will Have That (White) Power
TTITLE5=(06) Rotterdam Hooligan
TTITLE6=(07) MFS
TTITLE7=(08) I Can Go For Go Staight Now
TTITLE8=(09) Thrillseeka
TTITLE9=(10) Rotterdam Terror Corps Is In The Air
TTITLE10=(11) Tear
TTITLE11=(12) Respect The Coke
TTITLE12=(13) The T On The B
TTITLE13=(14) Go !
TTITLE14=(15) The Battle Has Begun
TTITLE15=(16) My Angel Fell Tonight
TTITLE16=(17) Ready Or Not
TTITLE17=(18) L'aigle Noir (DJ Mystik) Intro
TTITLE18=(19) L'aigle Noir (DJ Mystik)
TTITLE19=(20) I Am
TTITLE20=(21) Pump Up The Valium Intro
TTITLE21=(22) Pump Up The Valium
TTITLE22=(23) Hardcore To Dependence
TTITLE23=(24) Give Me Is Comming
TTITLE24=(25) Rotter Terror
TTITLE25=(26) Like, Any One Way (Alanis Morissette) Intro
TTITLE26=(27) Like, Any One Way (Alanis Morissette)
TTITLE27=(28) Extreme Terror
TTITLE28=(29) Skin Head
EXTD=
EXTT0=
EXTT1=
EXTT2=
EXTT3=
EXTT4=
EXTT5=
EXTT6=
EXTT7=
EXTT8=
EXTT9=
EXTT10=
EXTT11=
EXTT12=
EXTT13=
EXTT14=
EXTT15=
EXTT16=
EXTT17=
EXTT18=
EXTT19=
EXTT20=
EXTT21=
EXTT22=
EXTT23=
EXTT24=
EXTT25=
EXTT26=
EXTT27=
EXTT28=
PLAYORDER=
